<svg width="41" height="41" viewBox="0 0 41 41" fill="none" xmlns="http://www.w3.org/2000/svg">
<g clip-path="url(#clip0_161_4065)">
<path d="M6.00442 6.00426C9.87643 2.13232 15.0244 0 20.5002 0C20.5005 0 20.4998 0 20.5002 0C25.9754 0 31.124 2.13256 34.9957 6.00426C38.8676 9.8762 41 15.0242 41 20.5C40.9998 23.9857 40.1127 27.4117 38.4301 30.4419L40.9556 39.4753C41.0724 39.8931 40.9548 40.3414 40.6481 40.6481C40.3414 40.9548 39.8933 41.0722 39.4753 40.9556L30.4416 38.43C27.4118 40.1128 23.986 40.9999 20.5001 41C15.0243 41 9.87627 38.8676 6.00426 34.9957C2.13224 31.1237 0 25.9757 0 20.4999C0.000160217 15.0241 2.13264 9.8762 6.00442 6.00426ZM20.5002 38.5977C23.731 38.5976 26.9023 37.735 29.6716 36.1031C29.8581 35.9932 30.0689 35.9368 30.2814 35.9368C30.3898 35.9368 30.4986 35.9515 30.6048 35.9812L38.0676 38.0675L35.9813 30.605C35.8933 30.2903 35.9373 29.9534 36.1031 29.6718C37.735 26.9022 38.5975 23.7306 38.5977 20.4999C38.5977 15.6658 36.7152 11.1212 33.297 7.70296C29.8787 4.28474 25.3341 2.40234 20.5002 2.40234C10.5213 2.40234 2.40266 10.5209 2.40234 20.4999C2.40234 30.479 10.521 38.5977 20.5002 38.5977Z" fill="#057BDE"/>
<path d="M20.5002 38.5977C23.731 38.5976 26.9023 37.735 29.6716 36.1031C29.8581 35.9932 30.0689 35.9368 30.2814 35.9368C30.3898 35.9368 30.4986 35.9515 30.6048 35.9812L38.0676 38.0675L35.9813 30.605C35.8933 30.2903 35.9373 29.9534 36.1031 29.6718C37.735 26.9022 38.5975 23.7306 38.5977 20.4999C38.5977 15.6658 36.7152 11.1212 33.297 7.70296C29.8787 4.28474 25.3341 2.40234 20.5002 2.40234C10.5213 2.40234 2.40266 10.5209 2.40234 20.4999C2.40234 30.479 10.521 38.5977 20.5002 38.5977Z" fill="#057BDE"/>
<path d="M29.2562 22.0361C28.5219 21.3018 27.5428 20.8974 26.4992 20.8974C25.4556 20.8974 24.4766 21.3018 23.7425 22.036L23.1857 22.5928C23.0483 22.7301 22.8638 22.8057 22.666 22.8057C22.4682 22.8057 22.2836 22.7301 22.146 22.5925L18.3124 18.759C18.1751 18.6217 18.0995 18.4371 18.0994 18.2392C18.0994 18.0413 18.1749 17.8568 18.3121 17.7196L18.8691 17.1627C20.3893 15.6426 20.3893 13.1691 18.8692 11.649L17.7553 10.5347C17.0209 9.80064 16.0418 9.39648 14.9983 9.39648C13.9548 9.39648 12.9758 9.80072 12.2415 10.535L11.4109 11.3658C9.65487 13.1218 9.01745 15.7368 9.61587 18.7293C10.1791 21.5452 11.7889 24.3958 14.1489 26.7561C17.1229 29.7298 20.9106 31.5053 24.2811 31.5055H24.2818C26.4055 31.5055 28.2237 30.8101 29.5393 29.4945L30.37 28.6638C31.8901 27.1437 31.8901 24.6701 30.37 23.1498L29.2562 22.0361ZM28.6713 26.9651L27.8407 27.7958C26.9853 28.6511 25.7548 29.1031 24.2819 29.1031H24.2815C21.5338 29.103 18.381 27.5906 15.8477 25.0574C13.8193 23.0289 12.4428 20.6142 11.9717 18.2583C11.5358 16.0788 11.94 14.2343 13.1098 13.0645L13.9402 12.2338C14.2208 11.9534 14.5965 11.7989 14.9984 11.7989C15.4005 11.7989 15.7764 11.9534 16.0567 12.2337L17.1705 13.3477C17.754 13.9312 17.754 14.8806 17.1706 15.464L16.6136 16.0209C16.0225 16.6119 15.6971 17.3999 15.6972 18.2396C15.6972 19.0791 16.0228 19.867 16.6138 20.4579L20.4474 24.2913C21.0385 24.8826 21.8265 25.2082 22.6661 25.2082C23.5056 25.2082 24.2934 24.8827 24.8844 24.2917L25.4413 23.7349C25.7217 23.4544 26.0975 23.2999 26.4993 23.2999C26.9012 23.2999 27.2769 23.4544 27.5575 23.735L28.6713 24.8488C29.2548 25.4321 29.2549 26.3816 28.6713 26.9651Z" fill="white"/>
</g>
<defs>
<clipPath id="clip0_161_4065">
<rect width="41" height="41" fill="white" transform="matrix(-1 0 0 1 41 0)"/>
</clipPath>
</defs>
</svg>
